# xmcd
#
# Track frame offsets: 
#        150
#        11981
#        22225
#        34177
#        44453
#        63052
#        74502
#        87821
#        99781
#        112993
#        123168
#        135224
#        149223
#        163241
#        173603
#        188558
#        198781
#        209916
#
# Disc length: 3821 seconds
#
# Revision: 1
# Processed by: cddbd v1.5.2PL0 Copyright (c) Steve Scherf et al.
# Submitted via: ExactAudioCopy v0.99pb4
#
DISCID=fd0eeb12
DTITLE=Dave Dudley - Golden Hits
DYEAR=2004
DGENRE=Country
TTITLE0=SIX DAYS ON THE ROAD
TTITLE1=TRUCK DRIVING SON OF A GUN
TTITLE2=THE MOST BEAUTUFUL GIRL
TTITLE3=UNDER COVER OF THE NIGHT
TTITLE4=HE DOESN'T LIVE THERE ANYMORE
TTITLE5=IF I CAN JUST HOLD OUT A LITTLE LONGER
TTITLE6=I CAN'T REMEMBER YOU
TTITLE7=FAREWELL TO ARMS
TTITLE8=DON'T MESS WITH U.S.TRUCKERS
TTITLE9=COWBOY BOOTS
TTITLE10=DENIMS AND DIAMOND
TTITLE11=THINK I'LL SEND HIM SOME ROSES
TTITLE12=MORNING SUN
TTITLE13=THE NIGHT YOU BROKE THE NEWS
TTITLE14=DEUTSCHLANDS AUTOBAHN
TTITLE15=BEFORE MY TIME
TTITLE16=BACK HOME
TTITLE17=SINGING ON THE ROAD
EXTD=
EXTT0=
EXTT1=
EXTT2=
EXTT3=
EXTT4=
EXTT5=
EXTT6=
EXTT7=
EXTT8=
EXTT9=
EXTT10=
EXTT11=
EXTT12=
EXTT13=
EXTT14=
EXTT15=
EXTT16=
EXTT17=
PLAYORDER=
